<svg width="800" height="800" viewBox="0 0 800 800" fill="none" xmlns="http://www.w3.org/2000/svg">
<g clip-path="url(#clip0_18_527)">
<path d="M66.6667 0H0V66.6667H66.6667V0Z" stroke="#E3E3E3" stroke-width="3.5"/>
<path d="M133.333 0H66.6667V66.6667H133.333V0Z" stroke="#E3E3E3" stroke-width="3.5"/>
<path d="M200 0H133.333V66.6667H200V0Z" stroke="#E3E3E3" stroke-width="3.5"/>
<path d="M266.667 0H200V66.6667H266.667V0Z" stroke="#E3E3E3" stroke-width="3.5"/>
<path d="M333.333 0H266.667V66.6667H333.333V0Z" stroke="#E3E3E3" stroke-width="3.5"/>
<path d="M400 0H333.333V66.6667H400V0Z" stroke="#E3E3E3" stroke-width="3.5"/>
<path d="M466.667 0H400V66.6667H466.667V0Z" stroke="#E3E3E3" stroke-width="3.5"/>
<path d="M533.333 0H466.667V66.6667H533.333V0Z" stroke="#E3E3E3" stroke-width="3.5"/>
<path d="M600 0H533.333V66.6667H600V0Z" stroke="#E3E3E3" stroke-width="3.5"/>
<path d="M666.667 0H600V66.6667H666.667V0Z" stroke="#E3E3E3" stroke-width="3.5"/>
<path d="M733.333 0H666.667V66.6667H733.333V0Z" stroke="#E3E3E3" stroke-width="3.5"/>
<path d="M800 0H733.333V66.6667H800V0Z" stroke="#E3E3E3" stroke-width="3.5"/>
<path d="M866.667 0H800V66.6667H866.667V0Z" stroke="#E3E3E3" stroke-width="3.5"/>
<path d="M66.6667 66.667H0V133.334H66.6667V66.667Z" stroke="#E3E3E3" stroke-width="3.5"/>
<path d="M133.333 66.667H66.6667V133.334H133.333V66.667Z" stroke="#E3E3E3" stroke-width="3.5"/>
<path d="M200 66.667H133.333V133.334H200V66.667Z" stroke="#E3E3E3" stroke-width="3.5"/>
<path d="M266.667 66.667H200V133.334H266.667V66.667Z" stroke="#E3E3E3" stroke-width="3.5"/>
<path d="M333.333 66.667H266.667V133.334H333.333V66.667Z" stroke="#E3E3E3" stroke-width="3.5"/>
<path d="M400 66.667H333.333V133.334H400V66.667Z" stroke="#E3E3E3" stroke-width="3.5"/>
<path d="M466.667 66.667H400V133.334H466.667V66.667Z" stroke="#E3E3E3" stroke-width="3.5"/>
<path d="M533.333 66.667H466.667V133.334H533.333V66.667Z" stroke="#E3E3E3" stroke-width="3.5"/>
<path d="M600 66.667H533.333V133.334H600V66.667Z" stroke="#E3E3E3" stroke-width="3.5"/>
<path d="M666.667 66.667H600V133.334H666.667V66.667Z" stroke="#E3E3E3" stroke-width="3.5"/>
<path d="M733.333 66.667H666.667V133.334H733.333V66.667Z" stroke="#E3E3E3" stroke-width="3.5"/>
<path d="M800 66.667H733.333V133.334H800V66.667Z" stroke="#E3E3E3" stroke-width="3.5"/>
<path d="M866.667 66.667H800V133.334H866.667V66.667Z" stroke="#E3E3E3" stroke-width="3.5"/>
<path d="M66.6667 133.333H0V200H66.6667V133.333Z" stroke="#E3E3E3" stroke-width="3.5"/>
<path d="M133.333 133.333H66.6667V200H133.333V133.333Z" stroke="#E3E3E3" stroke-width="3.5"/>
<path d="M200 133.333H133.333V200H200V133.333Z" stroke="#E3E3E3" stroke-width="3.5"/>
<path d="M266.667 133.333H200V200H266.667V133.333Z" stroke="#E3E3E3" stroke-width="3.5"/>
<path d="M333.333 133.333H266.667V200H333.333V133.333Z" stroke="#E3E3E3" stroke-width="3.5"/>
<path d="M400 133.333H333.333V200H400V133.333Z" stroke="#E3E3E3" stroke-width="3.5"/>
<path d="M466.667 133.333H400V200H466.667V133.333Z" stroke="#E3E3E3" stroke-width="3.5"/>
<path d="M533.333 133.333H466.667V200H533.333V133.333Z" stroke="#E3E3E3" stroke-width="3.5"/>
<path d="M600 133.333H533.333V200H600V133.333Z" stroke="#E3E3E3" stroke-width="3.5"/>
<path d="M666.667 133.333H600V200H666.667V133.333Z" stroke="#E3E3E3" stroke-width="3.5"/>
<path d="M733.333 133.333H666.667V200H733.333V133.333Z" stroke="#E3E3E3" stroke-width="3.5"/>
<path d="M800 133.333H733.333V200H800V133.333Z" stroke="#E3E3E3" stroke-width="3.5"/>
<path d="M866.667 133.333H800V200H866.667V133.333Z" stroke="#E3E3E3" stroke-width="3.5"/>
<path d="M66.6667 200H0V266.667H66.6667V200Z" stroke="#E3E3E3" stroke-width="3.5"/>
<path d="M133.333 200H66.6667V266.667H133.333V200Z" stroke="#E3E3E3" stroke-width="3.5"/>
<path d="M200 200H133.333V266.667H200V200Z" stroke="#E3E3E3" stroke-width="3.5"/>
<path d="M266.667 200H200V266.667H266.667V200Z" stroke="#E3E3E3" stroke-width="3.5"/>
<path d="M333.333 200H266.667V266.667H333.333V200Z" stroke="#E3E3E3" stroke-width="3.5"/>
<path d="M400 200H333.333V266.667H400V200Z" stroke="#E3E3E3" stroke-width="3.5"/>
<path d="M466.667 200H400V266.667H466.667V200Z" stroke="#E3E3E3" stroke-width="3.5"/>
<path d="M533.333 200H466.667V266.667H533.333V200Z" stroke="#E3E3E3" stroke-width="3.5"/>
<path d="M600 200H533.333V266.667H600V200Z" stroke="#E3E3E3" stroke-width="3.5"/>
<path d="M666.667 200H600V266.667H666.667V200Z" stroke="#E3E3E3" stroke-width="3.5"/>
<path d="M733.333 200H666.667V266.667H733.333V200Z" stroke="#E3E3E3" stroke-width="3.5"/>
<path d="M800 200H733.333V266.667H800V200Z" stroke="#E3E3E3" stroke-width="3.5"/>
<path d="M866.667 200H800V266.667H866.667V200Z" stroke="#E3E3E3" stroke-width="3.5"/>
<path d="M66.6667 266.667H0V333.334H66.6667V266.667Z" stroke="#E3E3E3" stroke-width="3.5"/>
<path d="M133.333 266.667H66.6667V333.334H133.333V266.667Z" stroke="#E3E3E3" stroke-width="3.5"/>
<path d="M200 266.667H133.333V333.334H200V266.667Z" stroke="#E3E3E3" stroke-width="3.5"/>
<path d="M266.667 266.667H200V333.334H266.667V266.667Z" stroke="#E3E3E3" stroke-width="3.5"/>
<path d="M333.333 266.667H266.667V333.334H333.333V266.667Z" stroke="#E3E3E3" stroke-width="3.5"/>
<path d="M400 266.667H333.333V333.334H400V266.667Z" stroke="#E3E3E3" stroke-width="3.5"/>
<path d="M466.667 266.667H400V333.334H466.667V266.667Z" stroke="#E3E3E3" stroke-width="3.5"/>
<path d="M533.333 266.667H466.667V333.334H533.333V266.667Z" stroke="#E3E3E3" stroke-width="3.5"/>
<path d="M600 266.667H533.333V333.334H600V266.667Z" stroke="#E3E3E3" stroke-width="3.5"/>
<path d="M666.667 266.667H600V333.334H666.667V266.667Z" stroke="#E3E3E3" stroke-width="3.5"/>
<path d="M733.333 266.667H666.667V333.334H733.333V266.667Z" stroke="#E3E3E3" stroke-width="3.5"/>
<path d="M800 266.667H733.333V333.334H800V266.667Z" stroke="#E3E3E3" stroke-width="3.5"/>
<path d="M866.667 266.667H800V333.334H866.667V266.667Z" stroke="#E3E3E3" stroke-width="3.5"/>
<path d="M66.6667 333.333H0V400H66.6667V333.333Z" stroke="#E3E3E3" stroke-width="3.5"/>
<path d="M133.333 333.333H66.6667V400H133.333V333.333Z" stroke="#E3E3E3" stroke-width="3.5"/>
<path d="M200 333.333H133.333V400H200V333.333Z" stroke="#E3E3E3" stroke-width="3.5"/>
<path d="M266.667 333.333H200V400H266.667V333.333Z" stroke="#E3E3E3" stroke-width="3.5"/>
<path d="M333.333 333.333H266.667V400H333.333V333.333Z" stroke="#E3E3E3" stroke-width="3.5"/>
<path d="M400 333.333H333.333V400H400V333.333Z" stroke="#E3E3E3" stroke-width="3.5"/>
<path d="M466.667 333.333H400V400H466.667V333.333Z" stroke="#E3E3E3" stroke-width="3.5"/>
<path d="M533.333 333.333H466.667V400H533.333V333.333Z" stroke="#E3E3E3" stroke-width="3.5"/>
<path d="M600 333.333H533.333V400H600V333.333Z" stroke="#E3E3E3" stroke-width="3.5"/>
<path d="M666.667 333.333H600V400H666.667V333.333Z" stroke="#E3E3E3" stroke-width="3.5"/>
<path d="M733.333 333.333H666.667V400H733.333V333.333Z" stroke="#E3E3E3" stroke-width="3.5"/>
<path d="M800 333.333H733.333V400H800V333.333Z" stroke="#E3E3E3" stroke-width="3.5"/>
<path d="M866.667 333.333H800V400H866.667V333.333Z" stroke="#E3E3E3" stroke-width="3.5"/>
<path d="M66.6667 400H0V466.667H66.6667V400Z" stroke="#E3E3E3" stroke-width="3.5"/>
<path d="M133.333 400H66.6667V466.667H133.333V400Z" stroke="#E3E3E3" stroke-width="3.5"/>
<path d="M200 400H133.333V466.667H200V400Z" stroke="#E3E3E3" stroke-width="3.5"/>
<path d="M266.667 400H200V466.667H266.667V400Z" stroke="#E3E3E3" stroke-width="3.5"/>
<path d="M333.333 400H266.667V466.667H333.333V400Z" stroke="#E3E3E3" stroke-width="3.5"/>
<path d="M400 400H333.333V466.667H400V400Z" stroke="#E3E3E3" stroke-width="3.5"/>
<path d="M466.667 400H400V466.667H466.667V400Z" stroke="#E3E3E3" stroke-width="3.5"/>
<path d="M533.333 400H466.667V466.667H533.333V400Z" stroke="#E3E3E3" stroke-width="3.5"/>
<path d="M600 400H533.333V466.667H600V400Z" stroke="#E3E3E3" stroke-width="3.5"/>
<path d="M666.667 400H600V466.667H666.667V400Z" stroke="#E3E3E3" stroke-width="3.5"/>
<path d="M733.333 400H666.667V466.667H733.333V400Z" stroke="#E3E3E3" stroke-width="3.5"/>
<path d="M800 400H733.333V466.667H800V400Z" stroke="#E3E3E3" stroke-width="3.5"/>
<path d="M866.667 400H800V466.667H866.667V400Z" stroke="#E3E3E3" stroke-width="3.5"/>
<path d="M66.6667 466.667H0V533.334H66.6667V466.667Z" stroke="#E3E3E3" stroke-width="3.5"/>
<path d="M133.333 466.667H66.6667V533.334H133.333V466.667Z" stroke="#E3E3E3" stroke-width="3.5"/>
<path d="M200 466.667H133.333V533.334H200V466.667Z" stroke="#E3E3E3" stroke-width="3.5"/>
<path d="M266.667 466.667H200V533.334H266.667V466.667Z" stroke="#E3E3E3" stroke-width="3.5"/>
<path d="M333.333 466.667H266.667V533.334H333.333V466.667Z" stroke="#E3E3E3" stroke-width="3.5"/>
<path d="M400 466.667H333.333V533.334H400V466.667Z" stroke="#E3E3E3" stroke-width="3.5"/>
<path d="M466.667 466.667H400V533.334H466.667V466.667Z" stroke="#E3E3E3" stroke-width="3.5"/>
<path d="M533.333 466.667H466.667V533.334H533.333V466.667Z" stroke="#E3E3E3" stroke-width="3.5"/>
<path d="M600 466.667H533.333V533.334H600V466.667Z" stroke="#E3E3E3" stroke-width="3.5"/>
<path d="M666.667 466.667H600V533.334H666.667V466.667Z" stroke="#E3E3E3" stroke-width="3.5"/>
<path d="M733.333 466.667H666.667V533.334H733.333V466.667Z" stroke="#E3E3E3" stroke-width="3.5"/>
<path d="M800 466.667H733.333V533.334H800V466.667Z" stroke="#E3E3E3" stroke-width="3.5"/>
<path d="M866.667 466.667H800V533.334H866.667V466.667Z" stroke="#E3E3E3" stroke-width="3.5"/>
<path d="M66.6667 533.333H0V600H66.6667V533.333Z" stroke="#E3E3E3" stroke-width="3.5"/>
<path d="M133.333 533.333H66.6667V600H133.333V533.333Z" stroke="#E3E3E3" stroke-width="3.5"/>
<path d="M200 533.333H133.333V600H200V533.333Z" stroke="#E3E3E3" stroke-width="3.5"/>
<path d="M266.667 533.333H200V600H266.667V533.333Z" stroke="#E3E3E3" stroke-width="3.5"/>
<path d="M333.333 533.333H266.667V600H333.333V533.333Z" stroke="#E3E3E3" stroke-width="3.5"/>
<path d="M400 533.333H333.333V600H400V533.333Z" stroke="#E3E3E3" stroke-width="3.5"/>
<path d="M466.667 533.333H400V600H466.667V533.333Z" stroke="#E3E3E3" stroke-width="3.5"/>
<path d="M533.333 533.333H466.667V600H533.333V533.333Z" stroke="#E3E3E3" stroke-width="3.5"/>
<path d="M600 533.333H533.333V600H600V533.333Z" stroke="#E3E3E3" stroke-width="3.5"/>
<path d="M666.667 533.333H600V600H666.667V533.333Z" stroke="#E3E3E3" stroke-width="3.5"/>
<path d="M733.333 533.333H666.667V600H733.333V533.333Z" stroke="#E3E3E3" stroke-width="3.5"/>
<path d="M800 533.333H733.333V600H800V533.333Z" stroke="#E3E3E3" stroke-width="3.5"/>
<path d="M866.667 533.333H800V600H866.667V533.333Z" stroke="#E3E3E3" stroke-width="3.5"/>
<path d="M66.6667 600H0V666.667H66.6667V600Z" stroke="#E3E3E3" stroke-width="3.5"/>
<path d="M133.333 600H66.6667V666.667H133.333V600Z" stroke="#E3E3E3" stroke-width="3.5"/>
<path d="M200 600H133.333V666.667H200V600Z" stroke="#E3E3E3" stroke-width="3.5"/>
<path d="M266.667 600H200V666.667H266.667V600Z" stroke="#E3E3E3" stroke-width="3.5"/>
<path d="M333.333 600H266.667V666.667H333.333V600Z" stroke="#E3E3E3" stroke-width="3.5"/>
<path d="M400 600H333.333V666.667H400V600Z" stroke="#E3E3E3" stroke-width="3.5"/>
<path d="M466.667 600H400V666.667H466.667V600Z" stroke="#E3E3E3" stroke-width="3.5"/>
<path d="M533.333 600H466.667V666.667H533.333V600Z" stroke="#E3E3E3" stroke-width="3.5"/>
<path d="M600 600H533.333V666.667H600V600Z" stroke="#E3E3E3" stroke-width="3.5"/>
<path d="M666.667 600H600V666.667H666.667V600Z" stroke="#E3E3E3" stroke-width="3.5"/>
<path d="M733.333 600H666.667V666.667H733.333V600Z" stroke="#E3E3E3" stroke-width="3.5"/>
<path d="M800 600H733.333V666.667H800V600Z" stroke="#E3E3E3" stroke-width="3.5"/>
<path d="M866.667 600H800V666.667H866.667V600Z" stroke="#E3E3E3" stroke-width="3.5"/>
<path d="M66.6667 666.667H0V733.334H66.6667V666.667Z" stroke="#E3E3E3" stroke-width="3.5"/>
<path d="M133.333 666.667H66.6667V733.334H133.333V666.667Z" stroke="#E3E3E3" stroke-width="3.5"/>
<path d="M200 666.667H133.333V733.334H200V666.667Z" stroke="#E3E3E3" stroke-width="3.5"/>
<path d="M266.667 666.667H200V733.334H266.667V666.667Z" stroke="#E3E3E3" stroke-width="3.5"/>
<path d="M333.333 666.667H266.667V733.334H333.333V666.667Z" stroke="#E3E3E3" stroke-width="3.5"/>
<path d="M400 666.667H333.333V733.334H400V666.667Z" stroke="#E3E3E3" stroke-width="3.5"/>
<path d="M466.667 666.667H400V733.334H466.667V666.667Z" stroke="#E3E3E3" stroke-width="3.5"/>
<path d="M533.333 666.667H466.667V733.334H533.333V666.667Z" stroke="#E3E3E3" stroke-width="3.5"/>
<path d="M600 666.667H533.333V733.334H600V666.667Z" stroke="#E3E3E3" stroke-width="3.5"/>
<path d="M666.667 666.667H600V733.334H666.667V666.667Z" stroke="#E3E3E3" stroke-width="3.5"/>
<path d="M733.333 666.667H666.667V733.334H733.333V666.667Z" stroke="#E3E3E3" stroke-width="3.5"/>
<path d="M800 666.667H733.333V733.334H800V666.667Z" stroke="#E3E3E3" stroke-width="3.5"/>
<path d="M866.667 666.667H800V733.334H866.667V666.667Z" stroke="#E3E3E3" stroke-width="3.5"/>
<path d="M66.6667 733.333H0V800H66.6667V733.333Z" stroke="#E3E3E3" stroke-width="3.5"/>
<path d="M133.333 733.333H66.6667V800H133.333V733.333Z" stroke="#E3E3E3" stroke-width="3.5"/>
<path d="M200 733.333H133.333V800H200V733.333Z" stroke="#E3E3E3" stroke-width="3.5"/>
<path d="M266.667 733.333H200V800H266.667V733.333Z" stroke="#E3E3E3" stroke-width="3.5"/>
<path d="M333.333 733.333H266.667V800H333.333V733.333Z" stroke="#E3E3E3" stroke-width="3.5"/>
<path d="M400 733.333H333.333V800H400V733.333Z" stroke="#E3E3E3" stroke-width="3.5"/>
<path d="M466.667 733.333H400V800H466.667V733.333Z" stroke="#E3E3E3" stroke-width="3.5"/>
<path d="M533.333 733.333H466.667V800H533.333V733.333Z" stroke="#E3E3E3" stroke-width="3.5"/>
<path d="M600 733.333H533.333V800H600V733.333Z" stroke="#E3E3E3" stroke-width="3.5"/>
<path d="M666.667 733.333H600V800H666.667V733.333Z" stroke="#E3E3E3" stroke-width="3.5"/>
<path d="M733.333 733.333H666.667V800H733.333V733.333Z" stroke="#E3E3E3" stroke-width="3.5"/>
<path d="M800 733.333H733.333V800H800V733.333Z" stroke="#E3E3E3" stroke-width="3.5"/>
<path d="M866.667 733.333H800V800H866.667V733.333Z" stroke="#E3E3E3" stroke-width="3.5"/>
<path d="M66.6667 800H0V866.667H66.6667V800Z" stroke="#E3E3E3" stroke-width="3.5"/>
<path d="M133.333 800H66.6667V866.667H133.333V800Z" stroke="#E3E3E3" stroke-width="3.5"/>
<path d="M200 800H133.333V866.667H200V800Z" stroke="#E3E3E3" stroke-width="3.5"/>
<path d="M266.667 800H200V866.667H266.667V800Z" stroke="#E3E3E3" stroke-width="3.5"/>
<path d="M333.333 800H266.667V866.667H333.333V800Z" stroke="#E3E3E3" stroke-width="3.5"/>
<path d="M400 800H333.333V866.667H400V800Z" stroke="#E3E3E3" stroke-width="3.5"/>
<path d="M466.667 800H400V866.667H466.667V800Z" stroke="#E3E3E3" stroke-width="3.5"/>
<path d="M533.333 800H466.667V866.667H533.333V800Z" stroke="#E3E3E3" stroke-width="3.5"/>
<path d="M600 800H533.333V866.667H600V800Z" stroke="#E3E3E3" stroke-width="3.5"/>
<path d="M666.667 800H600V866.667H666.667V800Z" stroke="#E3E3E3" stroke-width="3.5"/>
<path d="M733.333 800H666.667V866.667H733.333V800Z" stroke="#E3E3E3" stroke-width="3.5"/>
<path d="M800 800H733.333V866.667H800V800Z" stroke="#E3E3E3" stroke-width="3.5"/>
<path d="M866.667 800H800V866.667H866.667V800Z" stroke="#E3E3E3" stroke-width="3.5"/>
</g>
<defs>
<clipPath id="clip0_18_527">
<rect width="800" height="800" fill="white"/>
</clipPath>
</defs>
</svg>
